<?xml version="1.0" encoding="UTF-8"?>
<svg width="387px" height="141px" viewBox="0 0 387 141" version="1.1" xmlns="http://www.w3.org/2000/svg" xmlns:xlink="http://www.w3.org/1999/xlink">
    <!-- Generator: Sketch 39.1 (31720) - http://www.bohemiancoding.com/sketch -->
    <title>Group 6</title>
    <desc>Created with Sketch.</desc>
    <defs></defs>
    <g id="Page-1" stroke="none" stroke-width="1" fill="none" fill-rule="evenodd">
        <g id="Group-2" transform="translate(-9.000000, 0.000000)">
            <g id="Group">
                <g id="Group-5">
                    <g id="Group-6">
                        <path d="M16.1436578,35.6468881 L34.5509289,35.6468881 C35.8330338,35.6468881 36.7602564,35.8286064 37.3326247,36.1920486 C37.904993,36.5554908 38.4201167,37.1491041 38.8780113,37.9729064 L106.394233,140.753843 L87.9182782,140.753843 C86.6819628,140.753843 85.686057,140.414636 84.9305309,139.73621 C84.1750048,139.057785 83.5454091,138.282453 83.0417251,137.410192 L16.1436578,35.6468881 Z" id="X" fill="#305F96"></path>
                        <g id="plane_airplane_fly_airport-512.png" transform="translate(113.283447, 0.000000)" fill="#F6A623">
                            <g id="Layer_1">
                                <path d="M90.6637701,12.60285 L90.6637701,13.3462448 C90.4742345,15.0387687 89.2009846,15.516214 87.9611718,16.0178196 C84.8842539,17.2628199 81.6741155,17.998409 78.4662649,18.7289801 C72.0820649,20.1828744 65.6897697,21.5984838 59.2886752,22.9674451 C59.1158582,23.0042432 58.9421612,23.0304478 58.7686402,23.0592544 C57.4855352,23.2733521 57.2020237,23.0027564 57.2430281,21.5455169 C56.4519765,22.0874516 56.0264453,22.949232 55.3974757,23.603791 C51.8276244,27.3187203 48.4525883,31.2338086 44.963162,35.0319981 C42.9657347,37.2064277 40.9294148,39.349263 39.0358186,41.6279537 C38.0459042,42.8192437 36.8750774,43.4799358 35.3770949,43.5282565 C35.156234,43.5353187 34.9036959,43.4607934 34.7004335,43.6395798 L33.8205095,43.6395798 C32.6943829,43.1957732 32.5155824,42.6701931 33.0613112,41.3185156 C34.1186278,38.699536 35.2035739,36.0930083 36.2364286,33.4630636 C36.8652223,31.862163 37.5413558,30.2826351 38.1562466,28.6757874 C38.2808438,28.3501805 38.6324614,27.993351 38.3295916,27.6603102 C38.0636786,27.3677844 37.6610254,27.5803953 37.3224307,27.6541772 C33.2758366,28.5334273 29.2188595,29.3561794 25.1671618,30.2079239 C21.8058525,30.9145206 18.4521105,31.6670219 15.0651074,32.2297717 C13.2140995,32.5373513 11.3768183,32.3507592 9.56822272,31.9173601 C7.13945675,31.335282 4.71773016,30.7186361 2.28579646,30.1508684 C1.41995133,29.948665 0.743289844,29.5899771 0.559385747,28.5856508 L0.559385747,27.6564074 C0.732202803,26.7825469 1.22496019,26.2770385 2.05842412,26.0662861 C2.65378064,25.9157486 3.23224262,25.6776765 3.81052861,25.4552156 C4.57993408,25.1589728 4.67320601,24.968292 4.27125677,24.2434822 C3.41245103,22.6953627 2.62544709,21.1043121 1.75960196,19.5610247 C0.987028767,18.1842576 1.06956563,17.4562884 2.15750355,16.3679585 C2.60397694,15.9215499 3.09127881,15.5212319 3.56714166,15.1116214 C4.29730252,14.4830811 5.13499008,14.5486857 5.97795719,15.249707 C8.43892838,17.2964585 10.9072909,19.33336 13.3612227,21.3892181 C13.971186,21.900302 14.537153,21.9783585 15.2294772,21.7432599 C18.5205686,20.6255659 21.8336581,19.5833265 25.1379484,18.5102362 C31.3817124,16.4826271 37.6337478,14.4836387 43.8914147,12.5039785 C50.0651368,10.5505231 56.2430826,8.61472319 62.4541135,6.79805233 C65.1920847,5.99704451 67.9189689,5.10590009 70.7583074,4.82972895 C75.1904841,4.39874585 79.4875046,4.88009394 83.3904951,7.39778602 C84.2429654,7.94752642 85.2034903,8.08301011 86.1328659,8.34282657 C87.3888693,8.69426642 88.5691992,9.1763579 89.6085654,10.0431562 C90.4187993,10.7190878 90.4085922,11.7074311 90.6637701,12.60285 L90.6637701,12.60285 Z" id="Shape"></path>
                                <path d="M28.7171269,0.336837076 C35.3121566,2.9967034 41.9070103,5.65694143 48.7075902,8.39988211 C45.9419894,9.27987562 43.3912659,10.0935211 40.8393106,10.903078 C39.2169069,11.417693 37.5867599,11.9062892 35.9735074,12.4504541 C35.5539597,12.5920708 35.2887506,12.537803 34.9626508,12.2274357 C31.722067,9.14290514 28.4667005,6.07584435 25.2129179,3.00711093 C24.8093848,2.62630698 24.4262659,2.24698982 24.5957392,1.59150152 C24.7662685,0.931552856 25.2958067,0.841416246 25.8140819,0.702773129 C26.1989606,0.599627111 26.6280115,0.636982696 26.957279,0.337022925 C27.5438363,0.336837076 28.1305696,0.336837076 28.7171269,0.336837076 L28.7171269,0.336837076 Z" id="Shape"></path>
                            </g>
                        </g>
                        <g id="Group-3" transform="translate(104.237171, 57.053917) scale(-1, 1) rotate(7.000000) translate(-104.237171, -57.053917) translate(4.737171, 17.053917)">
                            <polygon id="Rectangle-Copy-2" fill="#315F96" points="181.31432 55.4012801 173.999924 70.3410838 160 62.9924701 167.226744 48"></polygon>
                            <polygon id="Rectangle-Copy-4" fill="#315F96" points="147.31432 38.4012801 139.999924 53.3410838 126 45.9924701 133.226744 31"></polygon>
                            <polygon id="Rectangle-Copy-5" fill="#315F96" points="131.306866 30.2794107 123.99247 45.2192144 109.992546 37.8706008 117.219291 22.8781307"></polygon>
                            <polygon id="Rectangle-Copy-3" fill="#315F96" points="198.31432 64.4012801 190.999924 79.3410838 177 71.9924701 184.226744 57"></polygon>
                            <path d="M0.693870881,2.97829821 L3.24774203,1.087479 L6.53810897,0.694544093 L5.35950998,2.43785843 C5.35930426,2.43806415 1.16024964,2.90464863 0.693870881,2.97829821 L0.693870881,2.97829821 Z" id="Shape" fill="#504C5F"></path>
                            <polygon id="Shape" fill="#504C5F" points="6.09600577 2.36441457 7.22543647 0.694749818 9.06708739 0.817361966 10.2458921 3.24841524"></polygon>
                            <path d="M11.3263602,3.42040141 L10.0741117,1.11216601 L11.817426,1.33332047 L12.750595,1.83672974 C12.750595,1.83672974 14.0028435,3.73968674 13.7818948,3.81333632 C13.5607403,3.88678017 11.3263602,3.42040141 11.3263602,3.42040141 L11.3263602,3.42040141 Z" id="Shape" fill="#504C5F"></path>
                        </g>
                        <path d="M358.932479,100.027866 L358.932479,124.545226 L345.98266,124.545226 L345.98266,54.8947291 L368.656878,54.8947291 C373.310492,54.8947291 377.338214,55.4406242 380.740166,56.532431 C384.142118,57.6242377 386.950291,59.149533 389.164769,61.1083626 C391.379247,63.0671923 393.016011,65.4113303 394.075109,68.1408471 C395.134208,70.8703639 395.663749,73.8567315 395.663749,77.1000396 C395.663749,80.4717956 395.102114,83.5625256 393.978828,86.3723223 C392.855542,89.1821189 391.170638,91.5985078 388.924066,93.6215614 C386.677494,95.644615 383.869321,97.2180775 380.499463,98.3419962 C377.129605,99.4659148 373.182116,100.027866 368.656878,100.027866 L358.932479,100.027866 Z" id="Path" fill="#305F96"></path>
                        <path d="M358.932479,89.9126483 L368.656878,89.9126483 C371.031826,89.9126483 373.10185,89.6156172 374.867014,89.0215459 C376.632178,88.4274746 378.092428,87.5765203 379.247808,86.4686577 C380.403188,85.360795 381.26971,84.0121128 381.8474,82.4225707 C382.42509,80.8330286 382.71393,79.0588693 382.71393,77.1000396 C382.71393,75.2375459 382.42509,73.5516932 381.8474,72.042431 C381.26971,70.5331687 380.403188,69.2487095 379.247808,68.1890148 C378.092428,67.1293201 376.632178,66.3185052 374.867014,65.7565459 C373.10185,65.1945865 371.031826,64.9136111 368.656878,64.9136111 L358.932479,64.9136111 L358.932479,89.9126483 Z" id="Path" fill="#FFFFFF"></path>
                        <path d="M338.477105,60.723021 C338.477105,61.7506038 338.268498,62.7139482 337.851277,63.6130831 C337.434057,64.5122181 336.880445,65.2989493 336.190427,65.9733005 C335.500408,66.6476517 334.69005,67.185519 333.759327,67.5869185 C332.828604,67.9883181 331.833709,68.1890148 330.77461,68.1890148 C329.747606,68.1890148 328.776781,67.9883181 327.862105,67.5869185 C326.947429,67.185519 326.153117,66.6476517 325.479146,65.9733005 C324.805174,65.2989493 324.267609,64.5122181 323.866436,63.6130831 C323.465262,62.7139482 323.264678,61.7506038 323.264678,60.723021 C323.264678,59.6633263 323.465262,58.6678704 323.866436,57.7366235 C324.267609,56.8053766 324.805174,56.0025896 325.479146,55.3282384 C326.153117,54.6538872 326.947429,54.1160199 327.862105,53.7146204 C328.776781,53.3132209 329.747606,53.1125241 330.77461,53.1125241 C331.833709,53.1125241 332.828604,53.3132209 333.759327,53.7146204 C334.69005,54.1160199 335.500408,54.6538872 336.190427,55.3282384 C336.880445,56.0025896 337.434057,56.8053766 337.851277,57.7366235 C338.268498,58.6678704 338.477105,59.6633263 338.477105,60.723021 L338.477105,60.723021 Z" id="Path" fill="#305F96"></path>
                        <polygon id="Path" fill="#305F96" points="336.695903 75.1251639 336.695903 124.545226 324.805177 124.545226 324.805177 75.1251639"></polygon>
                        <path d="M280.279508,97.3304744 L280.279508,124.545226 L267.32969,124.545226 L267.32969,54.8947291 L288.55969,54.8947291 C293.309585,54.8947291 297.377424,55.3844292 300.763329,56.363844 C304.149234,57.3432588 306.925314,58.7160246 309.091651,60.4821825 C311.257989,62.2483404 312.846612,64.3596702 313.85757,66.8162353 C314.868527,69.2728004 315.373998,71.9781926 315.373998,74.9324931 C315.373998,77.2766663 315.028994,79.4923584 314.338976,81.5796359 C313.648957,83.6669134 312.654061,85.5614908 311.354259,87.2634247 C310.054457,88.9653587 308.449786,90.4585425 306.5402,91.743021 C304.630614,93.0274995 302.456286,94.0550668 300.01715,94.8257539 C301.653938,95.7570008 303.066048,97.0896272 304.253522,98.8236732 L321.680415,124.545226 L310.030393,124.545226 C308.907107,124.545226 307.952328,124.320446 307.166028,123.870878 C306.379727,123.421311 305.713789,122.779081 305.168193,121.94417 L290.533454,99.6425241 C289.987858,98.8076131 289.386107,98.2135507 288.728182,97.8603191 C288.070257,97.5070876 287.099432,97.3304744 285.815676,97.3304744 L280.279508,97.3304744 Z" id="Path" fill="#305F96"></path>
                        <path d="M280.279508,88.034108 L288.367127,88.034108 C290.806263,88.034108 292.932451,87.7290489 294.745756,87.1189216 C296.55906,86.5087944 298.051404,85.665868 299.22283,84.5901173 C300.394257,83.5143666 301.268803,82.2379352 301.846493,80.760785 C302.424182,79.2836347 302.713023,77.662005 302.713023,75.8958471 C302.713023,72.3635313 301.549637,69.6501112 299.22283,67.7555055 C296.896024,65.8608997 293.341679,64.9136111 288.55969,64.9136111 L280.279508,64.9136111 L280.279508,88.034108 Z" id="Path" fill="#FFFFFF"></path>
                        <polygon id="Path" fill="#305F96" points="263.916084 54.8947291 263.916084 65.5397912 242.974928 65.5397912 242.974928 124.545226 230.025109 124.545226 230.025109 65.5397912 208.987672 65.5397912 208.987672 54.8947291"></polygon>
                        <polygon id="Path" fill="#305F96" points="206.007332 54.8947291 206.007332 124.545226 194.116606 124.545226 194.116606 54.8947291"></polygon>
                        <path d="M167.547377,74.3544806 C170.660484,74.3544806 173.52482,74.8522086 176.140472,75.8476794 C178.756124,76.8431502 181.010686,78.2961947 182.904225,80.2068564 C184.797764,82.1175181 186.274061,84.4616562 187.333159,87.2393409 C188.392257,90.0170256 188.921799,93.1880342 188.921799,96.752462 C188.921799,97.6515969 188.881682,98.3981889 188.801447,98.9922601 C188.721212,99.5863314 188.576792,100.051948 188.368182,100.389123 C188.159572,100.726299 187.878754,100.967135 187.525722,101.111639 C187.172689,101.256143 186.723381,101.328394 186.177785,101.328394 L155.656651,101.328394 C156.009684,106.402084 157.373654,110.127015 159.748601,112.503301 C162.123549,114.879586 165.268703,116.06771 169.184157,116.06771 C171.10979,116.06771 172.770624,115.84293 174.166708,115.393363 C175.562792,114.943795 176.782341,114.446067 177.825393,113.900164 C178.868444,113.354261 179.783106,112.856533 180.569406,112.406965 C181.355707,111.957398 182.117925,111.732617 182.856084,111.732617 C183.337493,111.732617 183.754707,111.828952 184.10774,112.021623 C184.460772,112.214295 184.76566,112.487243 185.022411,112.840474 L188.488533,117.175568 C187.172684,118.716942 185.696387,120.009429 184.059599,121.053068 C182.422811,122.096706 180.713837,122.931605 178.932626,123.557788 C177.151416,124.183971 175.338138,124.625504 173.49274,124.8824 C171.647341,125.139296 169.858134,125.267742 168.125064,125.267742 C164.691018,125.267742 161.497724,124.697763 158.545087,123.557788 C155.592449,122.417813 153.024977,120.731961 150.842592,118.500179 C148.660208,116.268398 146.943211,113.506811 145.691549,110.215335 C144.439888,106.923859 143.814066,103.11062 143.814066,98.7755055 C143.814066,95.4037495 144.359654,92.2327408 145.450846,89.2623844 C146.542038,86.2920279 148.106592,83.7070538 150.144554,81.5073844 C152.182516,79.307715 154.669754,77.5656672 157.606345,76.2811887 C160.542936,74.9967102 163.85658,74.3544806 167.547377,74.3544806 L167.547377,74.3544806 Z" id="Path" fill="#305F96"></path>
                        <path d="M167.78808,82.8801639 C164.32194,82.8801639 161.610047,83.859564 159.65232,85.8183937 C157.694593,87.7772234 156.44295,90.5548664 155.897354,94.1514061 L178.234588,94.1514061 C178.234588,92.6100319 178.025981,91.1569875 177.60876,89.7922291 C177.19154,88.4274707 176.549671,87.2313181 175.683137,86.2037353 C174.816602,85.1761525 173.725426,84.3653376 172.409576,83.7712664 C171.093727,83.1771951 169.553244,82.8801639 167.78808,82.8801639 L167.78808,82.8801639 Z" id="Path" fill="#FFFFFF"></path>
                        <path d="M141.17071,85.5775552 C140.817677,86.0271226 140.472673,86.3803489 140.135688,86.6372446 C139.798702,86.8941403 139.309277,87.0225862 138.6674,87.0225862 C138.057616,87.0225862 137.463888,86.8379452 136.886198,86.4686577 C136.308508,86.0993701 135.6185,85.6819209 134.816152,85.2162974 C134.013805,84.750674 133.059026,84.3332247 131.951787,83.9639372 C130.844548,83.5946496 129.472555,83.4100086 127.835767,83.4100086 C125.749664,83.4100086 123.92034,83.7873185 122.34774,84.5419496 C120.775139,85.2965807 119.467333,86.3803431 118.424282,87.7932695 C117.38123,89.2061958 116.602965,90.9161321 116.089463,92.9231297 C115.575961,94.9301273 115.319214,97.2020145 115.319214,99.7388595 C115.319214,102.37204 115.600031,104.716178 116.161674,106.771344 C116.723317,108.82651 117.533675,110.552502 118.592774,111.949372 C119.651872,113.346242 120.935608,114.405921 122.444021,115.12844 C123.952434,115.850959 125.653384,116.212214 127.546923,116.212214 C129.440463,116.212214 130.972923,115.979405 132.14435,115.513782 C133.315777,115.048158 134.302649,114.534375 135.104996,113.972415 C135.907343,113.410456 136.605375,112.896672 137.199112,112.431049 C137.792848,111.965426 138.458787,111.732617 139.196946,111.732617 C140.159763,111.732617 140.881864,112.101899 141.363273,112.840474 L144.781254,117.175568 C143.465405,118.716942 142.037249,120.009429 140.496742,121.053068 C138.956235,122.096706 137.359588,122.931605 135.706753,123.557788 C134.053918,124.183971 132.344944,124.625504 130.57978,124.8824 C128.814617,125.139296 127.065526,125.267742 125.332456,125.267742 C122.283537,125.267742 119.411177,124.697763 116.715291,123.557788 C114.019404,122.417813 111.668562,120.756044 109.662694,118.572431 C107.656826,116.388818 106.068203,113.715537 104.896776,110.552509 C103.725349,107.38948 103.139644,103.784967 103.139644,99.7388595 C103.139644,96.1102078 103.661162,92.7465303 104.704214,89.647726 C105.747265,86.5489217 107.279725,83.8676131 109.30164,81.6037198 C111.323555,79.3398265 113.82684,77.5656672 116.811572,76.2811887 C119.796303,74.9967102 123.230298,74.3544806 127.113658,74.3544806 C130.804455,74.3544806 134.037866,74.948543 136.813987,76.1366856 C139.590108,77.3248282 142.08537,79.0267366 144.299849,81.242462 L141.17071,85.5775552 Z" id="Path" fill="#305F96"></path>
                    </g>
                </g>
            </g>
        </g>
    </g>
</svg>